<?xml version="1.0" encoding="UTF-8" standalone="no"?>
<!-- Generator: Adobe Illustrator 18.0.0, SVG Export Plug-In . SVG Version: 6.00 Build 0)  -->

<svg
   xmlns:dc="http://purl.org/dc/elements/1.1/"
   xmlns:cc="http://creativecommons.org/ns#"
   xmlns:rdf="http://www.w3.org/1999/02/22-rdf-syntax-ns#"
   xmlns:svg="http://www.w3.org/2000/svg"
   xmlns="http://www.w3.org/2000/svg"
   xmlns:sodipodi="http://sodipodi.sourceforge.net/DTD/sodipodi-0.dtd"
   xmlns:inkscape="http://www.inkscape.org/namespaces/inkscape"
   version="1.1"
   id="Layer_1"
   x="0px"
   y="0px"
   viewBox="0 0 500 500"
   enable-background="new 0 0 500 500"
   xml:space="preserve"
   inkscape:version="0.48.5 r10040"
   width="100%"
   height="100%"
   sodipodi:docname="logo.svg"><metadata
     id="metadata17"><rdf:RDF><cc:Work
         rdf:about=""><dc:format>image/svg+xml</dc:format><dc:type
           rdf:resource="http://purl.org/dc/dcmitype/StillImage" /></cc:Work></rdf:RDF></metadata><defs
     id="defs15" /><sodipodi:namedview
     pagecolor="#ffffff"
     bordercolor="#666666"
     borderopacity="1"
     objecttolerance="10"
     gridtolerance="10"
     guidetolerance="10"
     inkscape:pageopacity="0"
     inkscape:pageshadow="2"
     inkscape:window-width="1440"
     inkscape:window-height="851"
     id="namedview13"
     showgrid="false"
     inkscape:zoom="2.3049392"
     inkscape:cx="238.5"
     inkscape:cy="250"
     inkscape:window-x="0"
     inkscape:window-y="0"
     inkscape:window-maximized="1"
     inkscape:current-layer="Layer_1" /><polygon
     points="223.6,385.2 179.6,306.8 225.5,232.8 315.3,237.3 359.3,315.8 313.5,389.7 "
     id="polygon7"
     transform="translate(-7.3626945,-4.2280476e-8)"
     style="opacity:0.73000004;fill:#5ac7d4" /><polygon
     opacity="0.78"
     fill="#70BF45"
     points="272.5,230.6 228.8,305.9 138.9,304.1 92.6,227 136.2,151.7 226.1,153.5 "
     id="polygon3" /><polygon
     opacity="0.73"
     fill="#F15B58"
     points="384.4,154.4 383.8,241.4 304.7,284.3 226.3,240.2 227,153.2 306,110.3 "
     id="polygon5" /><path
     stroke-miterlimit="10"
     d="M 262.5,349.4 341.6,198 c 0.4,-0.7 -0.2,-1.6 -1,-1.6 h -96.1 c -2.1,0 -2.9,2.7 -1.1,3.8 l 15.8,9.4 0,0 h 29.4 c 0.2,0 0.2,0.2 0.1,0.3 l -32.4,25.8 c -1.6,1.2 2,1.1 4,1.1 h 28.5 c 1.6,0 2.6,1.6 1.9,3 L 262,297.4 c -0.1,0.3 -0.5,0.3 -0.7,0 l -47.8,-98.8 c -0.6,-1.3 -2,-2.1 -3.5,-2.1 l -34.3,0.8 c -1.6,0 -2.6,1.7 -1.8,3.1 l 84.6,149.1 c 1,1.5 3.2,1.4 4,-0.1 z"
     id="path9"
     inkscape:connector-curvature="0"
     style="fill:#ffffff;stroke:#ffffff;stroke-miterlimit:10" /><path
     fill="#F9EE49"
     stroke="#CCCADB"
     stroke-width="3"
     stroke-miterlimit="10"
     d="M235.5,237.9"
     id="path11" /></svg>