<?xml version="1.0" encoding="UTF-8" standalone="no"?>
<!-- Generator: Adobe Illustrator 18.0.0, SVG Export Plug-In . SVG Version: 6.00 Build 0)  -->

<svg
   xmlns:dc="http://purl.org/dc/elements/1.1/"
   xmlns:cc="http://creativecommons.org/ns#"
   xmlns:rdf="http://www.w3.org/1999/02/22-rdf-syntax-ns#"
   xmlns:svg="http://www.w3.org/2000/svg"
   xmlns="http://www.w3.org/2000/svg"
   xmlns:sodipodi="http://sodipodi.sourceforge.net/DTD/sodipodi-0.dtd"
   xmlns:inkscape="http://www.inkscape.org/namespaces/inkscape"
   version="1.1"
   id="Layer_1"
   x="0px"
   y="0px"
   viewBox="0 0 16 16"
   enable-background="new 0 0 500 500"
   xml:space="preserve"
   inkscape:version="0.48.5 r10040"
   width="100%"
   height="100%"
   sodipodi:docname="favicon.svg"
   inkscape:export-filename="/Users/victorzhou/Google Drive/victorzhou.com/favicon.png"
   inkscape:export-xdpi="90"
   inkscape:export-ydpi="90"><metadata
     id="metadata17"><rdf:RDF><cc:Work
         rdf:about=""><dc:format>image/svg+xml</dc:format><dc:type
           rdf:resource="http://purl.org/dc/dcmitype/StillImage" /><dc:title></dc:title></cc:Work></rdf:RDF></metadata><defs
     id="defs15" /><sodipodi:namedview
     pagecolor="#ffffff"
     bordercolor="#666666"
     borderopacity="1"
     objecttolerance="10"
     gridtolerance="10"
     guidetolerance="10"
     inkscape:pageopacity="0"
     inkscape:pageshadow="2"
     inkscape:window-width="1440"
     inkscape:window-height="851"
     id="namedview13"
     showgrid="false"
     inkscape:zoom="42.036325"
     inkscape:cx="8.9515584"
     inkscape:cy="7.6600416"
     inkscape:window-x="0"
     inkscape:window-y="0"
     inkscape:window-maximized="1"
     inkscape:current-layer="Layer_1" /><polygon
     points="179.6,306.8 225.5,232.8 315.3,237.3 359.3,315.8 313.5,389.7 223.6,385.2 "
     id="polygon7"
     transform="matrix(0.05483208,0,0,0.05483208,-5.4811606,-5.8680616)"
     style="opacity:0.73000004;fill:#5ac7d4" /><polygon
     points="228.8,305.9 138.9,304.1 92.6,227 136.2,151.7 226.1,153.5 272.5,230.6 "
     id="polygon3"
     transform="matrix(0.05483208,0,0,0.05483208,-5.0774506,-5.8680616)"
     style="opacity:0.77999998;fill:#70bf45" /><polygon
     points="383.8,241.4 304.7,284.3 226.3,240.2 227,153.2 306,110.3 384.4,154.4 "
     id="polygon5"
     transform="matrix(0.05483208,0,0,0.05483208,-5.0774506,-5.8680616)"
     style="opacity:0.73000004;fill:#f15b58" /><path
     stroke-miterlimit="10"
     d="M 9.3159694,13.290268 13.653189,4.9886884 c 0.0219,-0.0384 -0.011,-0.0877 -0.0548,-0.0877 H 8.3290194 c -0.11514,0 -0.15901,0.14805 -0.0603,0.20836 l 0.86634,0.51542 0,0 h 1.6120696 c 0.011,0 0.011,0.011 0.005,0.0164 l -1.7765596,1.41467 c -0.0877,0.0658 0.10967,0.0603 0.21933,0.0603 h 1.5627096 c 0.0877,0 0.14257,0.0877 0.10418,0.16449 L 9.2881094,10.438958 c -0.005,0.0164 -0.0274,0.0164 -0.0384,0 l -2.62097,-5.4174096 c -0.0329,-0.0713 -0.10967,-0.11515 -0.19191,-0.11515 l -1.88074,0.0439 c -0.0877,0 -0.14257,0.0932 -0.0987,0.16998 l 4.63879,8.1754596 c 0.0548,0.0822 0.17546,0.0768 0.21933,-0.005 z"
     id="path9"
     inkscape:connector-curvature="0"
     style="fill:#ffffff;stroke:#ffffff;stroke-width:0.05483208;stroke-miterlimit:10" /><path
     stroke-miterlimit="10"
     d="M 7.8354994,7.1764884"
     id="path11"
     inkscape:connector-curvature="0"
     style="fill:#f9ee49;stroke:#cccadb;stroke-width:0.16449623;stroke-miterlimit:10" /></svg>